<?xml version="1.0" encoding="UTF-8"?>
<svg id="Layer_2" xmlns="http://www.w3.org/2000/svg" version="1.1" viewBox="0 0 512.4 641.7">
  <!-- Generator: Adobe Illustrator 30.5.1, SVG Export Plug-In . SVG Version: 2.1.4 Build 3)  -->
  <defs>
    <style>
      .st0 {
        fill: #a9d9e6;
      }
    </style>
  </defs>
  <g id="Layer_1-2">
    <g>
      <path class="st0" d="M234.5,191.5c.9,30.2,69.9,33.3,125.1,32.3,2.2,0,4,1.4,4,3.3s-1.6,3.5-3.8,3.6c-55.2,2.4-123.9,9.6-123,39.8,1.2,39.5,118.6,32.6,169.8,31l-1.2-40-1-32.2-.2-6.8-.5-15.4-1.7-56.8c-51.2,1.5-168.8,1.7-167.6,41.2"/>
      <path class="st0" d="M310.5,348.7c13,27.3,77.3,2.4,127.6-20.7,2-.9,4.2-.3,5,1.4s-.1,3.8-2.1,4.8c-49.6,24.4-109.6,58.6-96.6,85.9,17,35.7,121.7-17.9,167.9-39.9l-17.2-36.1-13.8-29.1-2.9-6.2-6.6-13.9-24.4-51.3c-46.3,22-153.9,69.4-136.9,105.1"/>
      <path class="st0" d="M372.1,410.3c7.2,24.6,54.1,15.4,91,5.2,1.5-.4,3,.5,3.4,2s-.4,3.1-1.8,3.6c-36.5,11.4-81,28.9-73.8,53.5,9.4,32.1,86.6,6.5,120.7-3.5l-9.5-32.5-7.7-26.2-1.6-5.5-3.7-12.5-13.5-46.2c-34,10-112.9,30.1-103.5,62.2"/>
      <path class="st0" d="M178.9,159.9c25,17,67.9-37,99.6-82.3,1.2-1.8,3.5-2.4,5.1-1.3,1.6,1.1,1.8,3.4.6,5.2-30.5,46.1-65,105.9-40,122.9,32.7,22.2,96-76.9,124.8-119.2l-33.1-22.5-26.6-18.1-5.6-3.8-12.7-8.6L243.9,0c-28.8,42.4-97.7,137.6-65.1,159.9"/>
      <path class="st0" d="M160.7,221.4c17-25-37-67.9-82.3-99.6-1.8-1.2-2.4-3.5-1.3-5.1,1.1-1.6,3.4-1.8,5.2-.6,46.1,30.5,105.9,65,122.9,40,22.2-32.7-76.9-96-119.2-124.8l-22.5,33.1-18.1,26.7-3.8,5.6-8.7,12.7L.8,156.4c42.4,28.8,137.6,97.7,159.9,65.1"/>
      <path class="st0" d="M204.3,265.8c-17.1-24.9-76.8,9.8-122.7,40.5-1.8,1.2-4.1.9-5.2-.6-1.1-1.5-.5-3.8,1.3-5.1,45.2-31.9,99-75.1,81.9-100-22.4-32.6-117.3,36.8-159.6,65.8l22.6,33,18.3,26.6,3.9,5.6,8.7,12.7,32.2,46.9c42.2-29,141.1-92.8,118.7-125.3"/>
      <path class="st0" d="M403.9,452.9c-29.6,6.2-20.5,74.6-9.9,128.9.4,2.1-.7,4.2-2.6,4.5s-3.7-1-4.2-3.1c-12.1-54-31.2-120.3-60.8-114.1-38.7,8.1-11.2,122.5-.7,172.6l39.2-8.2,31.5-6.6,6.7-1.4,15.1-3.2,55.6-11.7c-10.5-50.2-31.3-165.9-70-157.8"/>
      <path class="st0" d="M279.5,357.9c-23.1-19.5-71.4,29.8-107.6,71.6-1.4,1.6-3.7,2-5.2.8s-1.5-3.5-.1-5.2c35.1-42.7,75.6-98.6,52.5-118.1-30.2-25.5-103.4,66.5-136.5,105.7l30.6,25.8,24.6,20.8,5.2,4.4,11.8,9.9,43.4,36.7c33.1-39.2,111.5-126.8,81.3-152.3"/>
      <path class="st0" d="M340.4,477c-15.3-23.1-70.5,7.8-113.1,35.2-1.7,1.1-3.8.8-4.7-.6s-.4-3.5,1.3-4.6c41.9-28.5,91.9-67.2,76.6-90.3-20-30.2-105.8,31.5-145,57.4l45.5,72.5,28.8,43.5c39.2-25.9,130.7-82.8,110.7-113"/>
    </g>
  </g>
</svg>