<?xml version="1.0" encoding="UTF-8"?>
<svg id="Layer_2" data-name="Layer 2" xmlns="http://www.w3.org/2000/svg" viewBox="0 0 512.4 641.73">
  <defs>
    <style>
      .cls-1 {
        fill: #cce6fa;
      }
    </style>
  </defs>
  <g id="Layer_1-2" data-name="Layer 1">
    <g>
      <path class="cls-1" d="M234.52,191.48c.91,30.23,69.86,33.27,125.14,32.34,2.18-.04,3.97,1.44,4.03,3.32s-1.64,3.47-3.82,3.56c-55.23,2.39-123.88,9.56-122.97,39.79,1.19,39.51,118.57,32.58,169.79,31.04l-1.2-39.99-.97-32.21-.2-6.81-.46-15.38-1.71-56.82c-51.22,1.54-168.81,1.66-167.62,41.17"/>
      <path class="cls-1" d="M310.52,348.66c12.99,27.32,77.34,2.38,127.58-20.7,1.98-.91,4.21-.28,5.02,1.42s-.11,3.83-2.07,4.8c-49.61,24.39-109.58,58.56-96.6,85.88,16.97,35.7,121.66-17.85,167.94-39.85l-17.18-36.14-13.84-29.11-2.93-6.16-6.61-13.9-24.41-51.34c-46.28,22-153.9,69.39-136.93,105.09"/>
      <path class="cls-1" d="M372.09,410.31c7.21,24.6,54.12,15.36,91,5.2,1.45-.4,2.98.5,3.43,2.04s-.35,3.12-1.79,3.57c-36.53,11.35-81.01,28.89-73.81,53.49,9.42,32.15,86.65,6.51,120.67-3.46l-9.53-32.54-7.68-26.21-1.62-5.54-3.67-12.52-13.55-46.24c-34.02,9.97-112.88,30.06-103.46,62.21"/>
      <path class="cls-1" d="M178.85,159.88c25.01,17.01,67.94-37.03,99.63-82.33,1.25-1.79,3.5-2.37,5.06-1.31,1.56,1.06,1.84,3.36.64,5.18-30.48,46.12-64.97,105.91-39.96,122.92,32.68,22.23,95.97-76.88,124.78-119.25l-33.08-22.5-26.65-18.12-5.64-3.83-12.72-8.65L243.9,0c-28.82,42.37-97.73,137.65-65.05,159.88"/>
      <path class="cls-1" d="M160.66,221.42c17.01-25.01-37.03-67.94-82.33-99.63-1.79-1.25-2.37-3.5-1.31-5.06,1.06-1.56,3.36-1.84,5.18-.64,46.12,30.48,105.91,64.97,122.92,39.96,22.23-32.68-76.88-95.97-119.25-124.78l-22.5,33.08-18.12,26.65-3.83,5.64-8.65,12.72L.79,156.37c42.37,28.82,137.65,97.73,159.88,65.05"/>
      <path class="cls-1" d="M204.33,265.84c-17.13-24.93-76.75,9.83-122.73,40.53-1.81,1.21-4.12.94-5.19-.62-1.07-1.55-.5-3.8,1.29-5.06,45.15-31.9,99-75.08,81.87-100.01-22.38-32.58-117.34,36.78-159.57,65.79l22.65,32.98,18.25,26.57,3.86,5.62,8.71,12.68,32.19,46.86c42.24-29.01,141.05-92.75,118.67-125.33"/>
      <path class="cls-1" d="M403.91,452.91c-29.6,6.21-20.48,74.62-9.85,128.87.42,2.14-.72,4.16-2.56,4.55-1.84.39-3.7-1.01-4.18-3.14-12.06-53.96-31.18-120.27-60.78-114.07-38.69,8.11-11.23,122.45-.72,172.6l39.16-8.21,31.54-6.61,6.67-1.4,15.06-3.16,55.64-11.67c-10.51-50.15-31.3-165.89-69.98-157.78"/>
      <path class="cls-1" d="M279.51,357.89c-23.11-19.51-71.41,29.79-107.63,71.56-1.43,1.65-3.72,1.99-5.16.78s-1.48-3.54-.1-5.22c35.1-42.71,75.6-98.6,52.48-118.11-30.2-25.5-103.42,66.52-136.47,105.68l30.57,25.81,24.63,20.79,5.21,4.4,11.76,9.93,43.44,36.67c33.05-39.16,111.47-126.78,81.27-152.27"/>
      <path class="cls-1" d="M340.41,476.98c-15.3-23.12-70.48,7.79-113.1,35.19-1.68,1.08-3.79.79-4.74-.65s-.39-3.49,1.26-4.62c41.88-28.52,91.9-67.23,76.6-90.34-19.99-30.21-108.09,31.84-147.25,57.76l20.23,30.58,16.3,24.63,3.45,5.21,7.78,11.76,28.75,43.45c39.16-25.91,130.71-82.75,110.72-112.96"/>
    </g>
  </g>
</svg>