<?xml version="1.0" encoding="UTF-8"?><svg id="b" xmlns="http://www.w3.org/2000/svg" viewBox="0 0 1098.22 151.5"><defs><style>.d{fill:#e7b3ff;}</style></defs><g id="c"><g><path class="d" d="M500.08,76.14c0,13.75-11.57,24.8-25.51,23.94-11.95-.74-21.67-10.45-22.42-22.4-.87-13.94,10.18-25.53,23.94-25.53s23.99,10.74,23.99,23.99"/><path class="d" d="M500.08,24.77c0,13.75-11.57,24.8-25.5,23.94-11.95-.73-21.67-10.45-22.42-22.39-.87-13.95,10.18-25.53,23.94-25.53s23.99,10.74,23.99,23.99"/><path class="d" d="M500.08,127.52c0,13.75-11.57,24.8-25.51,23.94-11.95-.74-21.67-10.45-22.42-22.4-.87-13.94,10.18-25.53,23.94-25.53s23.99,10.74,23.99,23.99"/><path class="d" d="M385.99,86.95v-.22c0-2.73,2.08-5,4.79-5.27,26.52-2.68,52.58-11.36,52.58-38.75C443.37-.87,377.37,2.89,348.59,2.89V149.5h97.19l-58.25-58.82c-.98-.99-1.53-2.34-1.53-3.73"/><path class="d" d="M625.31,2.81V98.94c0,2.82-1.88,5.4-4.64,6-3.87,.83-7.28-2.1-7.28-5.82V2.81h-100.72V149.48h44.4V53.39c0-3.05,2.19-5.77,5.21-6.14,3.63-.44,6.71,2.38,6.71,5.92v96.31h100.72V2.81h-44.4Z"/><path class="d" d="M854.28,149.5c16.21,0,123.33,6.9,123.33-73.13S869.38,3.25,854.28,3.25"/><path class="d" d="M127.86,0c-33.56,0-39.22,60.97-40.03,109.94-.03,1.93-1.73,3.48-3.82,3.48s-3.79-1.55-3.82-3.48C79.38,60.97,73.71,0,40.15,0-3.7,0,.08,104.12,.08,149.51H167.93C167.93,104.12,171.71,0,127.86,0"/><path class="d" d="M736.81,149.65h-54.45L732.77,2.81h58.3l51.76,146.84h-57.15l-17.17-59.83c-1.87-6.52-11.07-6.62-13.08-.14l-18.62,59.97Z"/><path class="d" d="M232.41,149.5h-54.4L228.38,2.81h58.24l51.71,146.69h-57.09l-17.15-59.76c-1.87-6.51-11.06-6.61-13.07-.14l-18.6,59.91Z"/><path class="d" d="M1026.67,110.03c0-24.24,29.84-24.89,71.55-24.91v-17.59c-40.93-.02-71.55-.68-71.55-24.91s29.84-24.89,71.55-24.91V1.85h-104.8V150.9h104.8v-15.96c-40.93-.02-71.55-.69-71.55-24.91"/></g></g></svg>