<?xml version="1.0" encoding="UTF-8"?><svg id="b" xmlns="http://www.w3.org/2000/svg" viewBox="0 0 253.9 385.58"><defs><style>.d{fill:#e7b3ff;}</style></defs><g id="c"><g><path class="d" d="M7.64,21.46c1.76,3.12,3.5,5.81,4.78,7.94l6.81-4.18,5.48-3.36,1.16-.71,2.62-1.61,9.67-5.93c-1.22-2-2.83-4.65-4.56-7.51-1.22-2.02-2.55-4.11-3.92-6.1H15c1.42,4.48,4.01,9.62,6.52,13.98,.21,.36,.11,.81-.21,1-.32,.19-.76,.06-.97-.3C17.21,9.59,13.47,3.66,9.85,0H.12C-.39,2.85,.79,7.08,2.67,11.64c1.41,3.27,3.2,6.68,4.96,9.82Z"/><path class="d" d="M60.32,0h-7.84c1.01,.99,2.03,1.97,3.04,2.94l4.8-2.94Z"/><path class="d" d="M37.73,5.06l1.97,7.59,8.34-5.12-1.71-6.02c-.14-.5-.28-1.01-.41-1.52h-9.41l1.23,5.06Z"/><path class="d" d="M96.34,1.74c.67-.45,1.15-1.06,1.47-1.74h-7.74c.07,.13,.12,.26,.2,.38,1.37,2.07,4.08,2.68,6.06,1.35Z"/><path class="d" d="M101.66,9.6c1.96-1.35,2.44-4.07,1.08-6.08-1.36-2.01-4.07-2.57-6.05-1.26-1.99,1.33-2.48,4.06-1.09,6.1,1.38,2.05,4.1,2.6,6.07,1.24Z"/><path class="d" d="M72.11,6.56c1.07,1.68,2.14,3.37,3.26,5.04,1.71,2.6,3.42,5.18,5.15,7.71l2.03,2.98,14.41-9.9c-4.93-1.04-9.91-2.11-14.88-3.33-.25-.06-.48-.22-.62-.44l-.02-.04c-.29-.44-.22-1,.17-1.32,2.51-2.07,4.7-4.54,5-7.26h-18.65c.35,.56,.69,1.12,1.04,1.67l3.12,4.89Z"/><path class="d" d="M106.87,5.57l6.58-4.52c-.24-.35-.47-.7-.71-1.05h-9.65c1.25,1.86,2.51,3.72,3.77,5.57Z"/><path class="d" d="M20.61,41.21c1.43,3.03,3.41,6.26,5.26,9.18,1.85,2.85,3.67,5.46,5,7.41l6.58-4.52,5.3-3.64,1.12-.77,2.53-1.74,9.35-6.42c-1.28-1.87-2.95-4.41-4.82-7.07-1.86-2.72-4-5.6-6.04-8.08-2.07-2.48-4.2-4.6-6.22-5.84-2.03-1.24-3.95-1.68-5.63-.63-1.28,.79-1.89,2.1-1.98,3.76-.09,1.64,.33,3.59,1.09,5.73,.75,2.13,1.83,4.44,3.06,6.75,1.28,2.32,2.71,4.66,4.1,6.81,.22,.33,.14,.77-.17,.98-.31,.21-.74,.12-.97-.21-1.45-2.11-3.04-4.36-4.67-6.46-1.59-2.09-3.23-4.04-4.85-5.64-1.63-1.6-3.24-2.82-4.76-3.48-1.52-.68-2.97-.74-4.25,.05-1.68,1.02-2.17,3.02-1.87,5.44,.3,2.42,1.39,5.34,2.85,8.39Z"/><path class="d" d="M63.44,21.14c3.04,2.77,6.08,5.39,9.12,8.02l8.46-5.82-5.89-4.53-5.89-4.68c-3.88-3.17-7.75-6.3-11.61-9.59l-8.91,5.52c1.31,4.98,2.65,9.84,4.06,14.82l2.22,7.45,2.25,7.35,8.07-5.54c-1.3-3.89-2.59-7.75-3.85-11.72-.41-1.28,.98-2.17,1.98-1.27Z"/><path class="d" d="M113.07,25.76c1.93-1.4,2.35-4.12,.95-6.08-1.41-1.96-4.11-2.45-6.06-1.07-1.94,1.37-2.38,4.12-.96,6.1,1.42,1.98,4.14,2.45,6.07,1.06Z"/><path class="d" d="M107.6,18.1c1.94-1.38,2.39-4.1,.99-6.07-1.38-1.99-4.09-2.51-6.05-1.16-1.96,1.35-2.42,4.09-1.02,6.11,1.41,2,4.13,2.5,6.08,1.12Z"/><path class="d" d="M118.59,33.35c1.92-1.41,2.32-4.13,.91-6.08-1.42-1.95-4.13-2.4-6.07-1.01-1.93,1.4-2.34,4.12-.91,6.09,1.43,1.97,4.15,2.41,6.07,1Z"/><path class="d" d="M89.16,31.75l3.4,4.76,5.26,7.27,2.06,2.83,14.1-10.33c-4.94-.85-9.89-1.69-14.85-2.62-.25-.05-.48-.19-.63-.4l-.02-.03c-.3-.41-.24-.97,.13-1.3,3.59-3.19,6.46-7.2,3.54-11.34-4.63-6.58-13.99,.69-18.25,3.65l1.98,2.86,3.28,4.65Z"/><path class="d" d="M134.73,9.9c.34,.48,.23,1.15-.25,1.49-.48,.35-1.15,.24-1.49-.24-2.67-3.71-5.31-7.43-7.92-11.16h-6.17l-2.41,1.67-1.76,1.22-6.57,4.54c1.53,2.23,3.08,4.44,4.64,6.64,3.58,5.08,7.23,10.1,10.88,15.1l6.44-4.72c-3.42-4.68-6.83-9.38-10.18-14.11-.34-.49-.23-1.16,.25-1.5,.48-.34,1.15-.23,1.5,.26,3.34,4.72,6.74,9.41,10.16,14.08l3.22-2.36,3.22-2.36,1.73-1.27,6.44-4.72-4.65-6.39c-1.46-2.03-2.91-4.06-4.36-6.09h-9.77c2.32,3.31,4.67,6.61,7.04,9.9Z"/><path class="d" d="M44.44,76.97c1.8,2.57,3.56,4.93,4.85,6.68l6.44-4.72,5.19-3.8,1.1-.8,2.48-1.82,9.15-6.71c-1.27-1.73-2.92-4.08-4.77-6.52-1.86-2.49-3.93-5.08-6.05-7.36-4.24-4.55-8.67-7.81-11.92-5.57-4.98,3.44,1.21,14.13,6.64,21.83,.21,.3,.14,.72-.16,.94-.31,.22-.73,.16-.95-.14-2.84-3.8-6.21-8.02-9.51-10.92-3.29-2.88-6.52-4.48-9-2.75-3.25,2.23-1.68,7.7,1.34,13.35,1.51,2.84,3.37,5.68,5.18,8.31Z"/><path class="d" d="M148.33,11.15l7.9-5.79c-.6-1.79-1.2-3.58-1.8-5.36h-9.46c1.09,3.71,2.2,7.43,3.35,11.15Z"/><polygon class="d" points="163.33 .17 163.56 0 163.11 0 163.33 .17"/><path class="d" d="M81,46.49c3.04,2.49,6.07,4.87,9.1,7.29l8.29-6.07c-7.86-5.49-15.75-11.14-23.67-17.13l-8.62,5.96c2.96,9.59,6,18.97,9.02,28.22l7.9-5.78-3.94-11.12c-.42-1.21,.93-2.16,1.92-1.35Z"/><path class="d" d="M130.26,49.1c1.91-1.43,2.29-4.14,.86-6.07s-4.15-2.35-6.06-.93c-1.91,1.42-2.3,4.15-.86,6.08,1.44,1.93,4.15,2.34,6.06,.92Z"/><path class="d" d="M124.68,41.61c1.92-1.42,2.3-4.13,.87-6.07-1.43-1.94-4.14-2.37-6.06-.96-1.92,1.41-2.32,4.13-.88,6.08,1.44,1.95,4.16,2.36,6.07,.95Z"/><path class="d" d="M135.83,56.56c1.91-1.43,2.29-4.14,.85-6.07-1.44-1.92-4.15-2.33-6.06-.9-1.91,1.42-2.29,4.15-.85,6.07,1.44,1.92,4.15,2.33,6.06,.9Z"/><path class="d" d="M106.54,55.65l3.41,4.58,5.25,7.03,2.05,2.74,14-10.48-14.79-2.29c-.25-.04-.48-.18-.63-.38l-.02-.03c-.3-.4-.25-.95,.12-1.29,3.53-3.24,6.35-7.3,3.38-11.32-4.72-6.39-13.89,1.17-18.06,4.24l2.01,2.73,3.3,4.46Z"/><path class="d" d="M147.79,14.26l-6.44,4.73,10.31,13.92c.35,.47,.26,1.15-.22,1.5-.47,.36-1.15,.26-1.5-.22l-10.32-13.93-3.22,2.36-3.22,2.36-1.73,1.27-6.44,4.73,4.79,6.48,11.08,14.86,6.4-4.79-10.41-13.96c-.35-.48-.26-1.15,.22-1.51,.48-.35,1.15-.25,1.5,.23l10.4,13.95,3.2-2.39,3.2-2.39,1.72-1.29,6.39-4.79-4.79-6.41-10.92-14.73Z"/><path class="d" d="M190.08,15.5c1.17-.87,5.79-3.95,9.05-8.24,1.64-2.15,2.93-4.62,3.27-7.25h-23.84l11.52,15.5Z"/><path class="d" d="M67.06,107.59l6.39-4.79,5.15-3.85,1.09-.82,2.46-1.84,9.08-6.8c-2.48-3.31-6.44-8.89-10.61-13.15-4.16-4.23-8.53-7.15-11.71-4.81-4.87,3.57,1.18,13.51,6.45,20.79,.21,.29,.13,.7-.17,.92-.3,.22-.72,.18-.94-.1-5.5-7.1-13.19-15.83-18.07-12.28-3.19,2.32-1.67,7.44,1.22,12.7,2.91,5.29,7.17,10.7,9.65,14.02Z"/><path class="d" d="M156.93,7.54c2.7,8.78,5.53,17.63,8.4,26.51l7.84-5.87-3.76-10.63c-.4-1.14,.94-2.12,1.9-1.39l8.9,6.75,8.23-6.16L165.39,1.33l-8.45,6.21Z"/><path class="d" d="M98.55,70.38l9.01,6.9,8.22-6.15c-7.8-5.24-15.65-10.57-23.53-16.07l-8.45,6.2,8.89,27.15,7.83-5.86-3.88-10.78c-.42-1.17,.92-2.14,1.9-1.39Z"/><path class="d" d="M210.27,.7l.93-.7h-1.45c.17,.23,.35,.46,.52,.7Z"/><path class="d" d="M147.5,72.15c1.91-1.43,2.3-4.14,.87-6.05s-4.15-2.31-6.05-.88c-1.91,1.43-2.29,4.14-.86,6.05,1.43,1.91,4.14,2.31,6.05,.88Z"/><path class="d" d="M141.94,64.72c1.91-1.43,2.29-4.14,.85-6.06-1.44-1.92-4.15-2.32-6.06-.89-1.91,1.43-2.29,4.14-.85,6.06,1.44,1.92,4.15,2.31,6.05,.88Z"/><path class="d" d="M153.03,79.57c1.91-1.42,2.31-4.13,.88-6.05-1.43-1.92-4.14-2.32-6.05-.89-1.91,1.43-2.3,4.13-.87,6.05,1.42,1.91,4.12,2.31,6.04,.89Z"/><path class="d" d="M123.86,78.84l3.36,4.5,5.17,6.92,2.01,2.7,14.03-10.43-14.72-2.22c-.25-.04-.47-.17-.62-.37l-.02-.03c-.29-.39-.24-.94,.12-1.28,3.53-3.24,6.35-7.31,3.38-11.27-4.73-6.31-13.82,1.35-17.97,4.45l1.99,2.66,3.27,4.36Z"/><path class="d" d="M164.84,37.19l-6.39,4.79,10.45,13.96c.36,.48,.26,1.15-.21,1.51-.48,.35-1.15,.25-1.51-.23l-10.45-13.96-3.2,2.39-3.2,2.39-1.72,1.28-6.39,4.79,4.81,6.43,11.05,14.8,6.41-4.76-10.42-13.96c-.36-.48-.26-1.15,.21-1.51s1.15-.26,1.5,.22l10.43,13.97,3.21-2.38,3.21-2.38,1.72-1.28,6.41-4.76-4.83-6.48-11.1-14.84Z"/><path class="d" d="M201.87,11.03c-5.06,1.92-9.32,5.5-10.41,6.31l15.96,21.35c2.35-1.72,18.55-12.26,9.76-24.03-4.38-5.85-10.24-5.56-15.31-3.64Z"/><path class="d" d="M79.62,124.35c1.67,2.33,3.28,4.42,4.46,6.01l6.41-4.76,5.16-3.84,1.09-.81,2.47-1.83,9.11-6.77c-2.39-3.22-6.23-8.64-10.3-12.72-4.06-4.06-8.35-6.79-11.51-4.41-2.42,1.81-2.17,5.08-.67,8.79,1.48,3.69,4.21,7.82,6.74,11.34,.2,.28,.12,.68-.18,.91-.3,.23-.71,.19-.92-.08-2.65-3.43-5.84-7.21-8.97-9.66-3.14-2.48-6.21-3.64-8.63-1.83-3.17,2.35-1.75,7.25,1,12.28,1.38,2.52,3.1,5.09,4.75,7.4Z"/><path class="d" d="M173.92,30.39l8.69,26.78,7.86-5.84-3.85-10.78c-.42-1.16,.92-2.14,1.9-1.39l9.01,6.92,8.25-6.13c-7.86-5.37-15.7-10.65-23.47-15.85l-8.4,6.29Z"/><path class="d" d="M115.83,93.48l8.85,6.71,8.24-6.13-23.25-15.57-8.39,6.28c2.91,8.92,5.75,17.74,8.49,26.49l7.85-5.84-3.7-10.57c-.4-1.14,.93-2.12,1.9-1.39Z"/><path class="d" d="M227.67,23.98l15.13-11.24-1.78-2.39c-5.91,4.4-10.41,7.57-13.07,4-2.67-3.58,1.56-6.89,7.56-11.38l-1.93-2.58c-5.9,4.41-10.38,7.61-13.03,4.07-1.11-1.49-.99-2.93-.03-4.45h-6.32l-2.86,2.14,16.32,21.84Z"/><path class="d" d="M164.52,95.16c1.93-1.4,2.35-4.1,.94-6.03-1.41-1.93-4.11-2.34-6.03-.92-1.92,1.41-2.33,4.11-.93,6.03,1.4,1.91,4.1,2.33,6.03,.92Z"/><path class="d" d="M159.06,87.72c1.92-1.41,2.32-4.12,.91-6.04-1.42-1.92-4.13-2.32-6.04-.9-1.92,1.42-2.31,4.12-.9,6.04,1.41,1.91,4.11,2.32,6.03,.9Z"/><path class="d" d="M169.93,102.62c1.94-1.39,2.37-4.09,.97-6.02-1.4-1.93-4.09-2.36-6.02-.95-1.92,1.4-2.36,4.1-.97,6.02,1.39,1.92,4.09,2.34,6.02,.95Z"/><path class="d" d="M140.87,101.7l3.27,4.46,5.02,6.89,1.96,2.7,14.18-10.22-14.64-2.33c-.25-.04-.47-.17-.61-.37l-.02-.03c-.29-.39-.23-.94,.14-1.27,3.56-3.2,6.44-7.23,3.52-11.18-4.64-6.29-13.79,1.33-17.94,4.41l1.95,2.63,3.19,4.32Z"/><path class="d" d="M182.12,60.32l-6.41,4.76,10.4,14.12c.35,.48,.25,1.16-.23,1.51-.48,.35-1.15,.24-1.51-.24l-10.38-14.1-3.21,2.38-3.21,2.38-1.72,1.28-6.42,4.76,4.76,6.44c3.65,4.95,7.27,9.91,10.86,14.89l6.48-4.67c-3.4-4.71-6.83-9.41-10.27-14.09-.35-.48-.25-1.15,.22-1.5,.48-.35,1.15-.25,1.5,.23,3.45,4.68,6.88,9.39,10.29,14.11l3.24-2.34,3.24-2.34,1.74-1.25,6.48-4.67-4.78-6.59-11.08-15.05Z"/><path class="d" d="M208.83,40.6l16.08,21.95c2.36-1.69,18.78-11.94,9.86-24.16-8.9-12.11-23.75,.62-25.94,2.22Z"/><path class="d" d="M96.04,146.57c1.56,2.25,3.09,4.29,4.22,5.85l6.48-4.67,5.22-3.76,1.1-.79,2.49-1.8,9.2-6.64c-1.15-1.59-2.64-3.72-4.33-5.95-1.71-2.23-3.62-4.57-5.58-6.55-3.96-3.99-8.13-6.6-11.31-4.25-4.83,3.61,.71,12.8,5.54,19.69,.19,.27,.1,.67-.21,.89-.31,.22-.71,.19-.91-.08-5.07-6.71-12.24-14.68-17.1-11.09-3.15,2.36-1.9,7.08,.69,11.97,1.28,2.44,2.9,4.92,4.48,7.18Z"/><path class="d" d="M191.23,53.56c2.91,9,5.8,18.03,8.61,27.1l7.95-5.73-3.8-10.93c-.41-1.18,.93-2.14,1.92-1.37l9.02,7.16,8.34-6.01c-7.88-5.62-15.75-11.09-23.6-16.46l-8.42,6.25Z"/><path class="d" d="M132.63,116.16l8.66,6.67,8.33-6.01c-7.56-5.18-15.18-10.31-22.85-15.44l-8.41,6.24c2.73,8.76,5.37,17.45,7.87,26.07l7.94-5.72-3.45-10.44c-.38-1.13,.96-2.09,1.91-1.37Z"/><path class="d" d="M253.25,26.9l-1.98-2.7c-5.94,4.36-10.46,7.49-13.15,3.85-2.7-3.66,1.54-6.95,7.57-11.42l-1.77-2.38-15.14,11.24c5.51,7.42,11.05,14.97,16.59,22.64l8.53-6.15v-3.96c-3.55,2.17-6.35,2.92-8.25,.3-2.71-3.72,1.55-6.97,7.6-11.41Z"/><path class="d" d="M181.08,118.35c1.95-1.36,2.45-4.06,1.07-6-1.37-1.94-4.06-2.4-6.01-1.02-1.94,1.38-2.42,4.06-1.05,5.99,1.37,1.93,4.03,2.4,5.99,1.03Z"/><path class="d" d="M175.8,110.83c1.95-1.38,2.41-4.07,1.02-6.01-1.39-1.94-4.08-2.38-6.01-.99-1.93,1.39-2.39,4.08-1.01,6,1.38,1.92,4.06,2.37,6,.99Z"/><path class="d" d="M186.3,125.9c1.96-1.34,2.48-4.03,1.13-5.98-1.36-1.95-4.04-2.43-6-1.07-1.96,1.36-2.45,4.04-1.1,5.97,1.34,1.94,4,2.43,5.97,1.08Z"/><path class="d" d="M157.35,124.47l3.15,4.47,4.81,6.91,1.85,2.71,14.43-9.88c-4.83-.9-9.71-1.75-14.53-2.59-.25-.04-.46-.18-.6-.38l-.02-.03c-.27-.4-.2-.93,.17-1.26,3.63-3.12,6.58-7.08,3.76-11.07-4.52-6.33-13.77,1.16-17.98,4.17l1.88,2.62,3.08,4.32Z"/><path class="d" d="M199.3,83.81l-6.49,4.66c3.42,4.76,6.82,9.55,10.18,14.37,.35,.49,.23,1.17-.26,1.51-.49,.34-1.16,.21-1.5-.28-3.35-4.82-6.75-9.59-10.16-14.35l-3.24,2.33-3.24,2.33-1.74,1.25-6.49,4.66,4.65,6.5c3.54,5.01,7.06,10.03,10.52,15.08l6.59-4.51c-3.28-4.8-6.61-9.57-9.97-14.31-.34-.49-.23-1.16,.25-1.5,.48-.34,1.15-.23,1.5,.26,3.37,4.75,6.7,9.53,9.99,14.34l3.29-2.26,3.29-2.26,1.77-1.21,6.59-4.51-4.66-6.75c-3.59-5.17-7.22-10.28-10.87-15.37Z"/><path class="d" d="M236.88,58.44c-5.15,1.76-9.46,5.27-10.56,6.06l15.92,22.67c1.52-1.03,8.82-5.39,11.66-11.69v-10c-.38-.82-.85-1.65-1.44-2.5-4.44-6.31-10.44-6.3-15.58-4.54Z"/><path class="d" d="M111.49,168.25c1.47,2.22,2.91,4.22,3.94,5.74l6.59-4.51,5.31-3.63,1.12-.77,2.53-1.73,9.36-6.41c-1.07-1.58-2.48-3.69-4.09-5.9-1.6-2.21-3.43-4.53-5.33-6.5-3.77-3.94-7.88-6.53-11.07-4.22-2.45,1.76-2.37,4.9-1.09,8.45,1.24,3.54,3.7,7.49,5.95,10.89,.18,.27,.08,.66-.23,.87-.31,.21-.71,.18-.9-.08-2.37-3.31-5.3-6.92-8.21-9.26-2.95-2.35-5.88-3.42-8.33-1.65-3.22,2.3-2.08,6.93,.28,11.7,1.19,2.39,2.71,4.82,4.16,7.03Z"/><path class="d" d="M208.51,77.19c2.84,9.11,5.58,18.29,8.21,27.47l8.08-5.53c-1.18-3.73-2.41-7.41-3.62-11.13-.4-1.2,.97-2.14,1.94-1.33,2.97,2.48,5.97,4.95,8.94,7.49l8.48-5.81c-7.83-5.93-15.67-11.7-23.52-17.29l-8.52,6.12Z"/><path class="d" d="M148.77,138.69l8.4,6.72,8.48-5.8c-7.37-5.27-14.79-10.45-22.31-15.58l-8.51,6.11c2.52,8.65,4.84,17.24,7.02,25.76l8.07-5.53c-.98-3.44-2.05-6.89-3.09-10.35-.34-1.12,1.02-2.06,1.94-1.33Z"/><path class="d" d="M253.9,60.09v-15.74l-7.41,5.33c2.47,3.43,4.94,6.91,7.41,10.41Z"/><path class="d" d="M196.97,141.85c2-1.3,2.56-3.97,1.26-5.95-1.29-1.99-3.99-2.5-5.97-1.18-1.99,1.33-2.51,3.97-1.24,5.94,1.29,1.96,3.95,2.49,5.94,1.19Z"/><path class="d" d="M191.92,134.22c1.98-1.32,2.52-3.99,1.2-5.97-1.33-1.97-4.02-2.47-5.98-1.12-1.97,1.35-2.48,4.01-1.17,5.95,1.31,1.95,3.97,2.46,5.96,1.14Z"/><path class="d" d="M201.92,149.53c2.01-1.28,2.61-3.93,1.33-5.93-1.27-2-3.95-2.55-5.95-1.25-2,1.3-2.56,3.94-1.31,5.92,1.26,1.97,3.92,2.53,5.93,1.26Z"/><path class="d" d="M173.11,147.34c1.01,1.5,2,3,2.98,4.5,1.52,2.32,3.06,4.64,4.54,6.97l1.75,2.74,14.75-9.39c-4.81-1.04-9.59-2.04-14.4-2.98-.24-.05-.45-.19-.59-.39l-.02-.03c-.26-.4-.17-.93,.21-1.24,3.73-3.01,6.82-6.88,4.11-10.91-4.3-6.42-13.78,.85-18.04,3.75l1.8,2.64,2.91,4.35Z"/><path class="d" d="M216.13,107.82l-6.6,4.5c3.32,4.86,6.59,9.77,9.82,14.71,.33,.51,.2,1.18-.3,1.5-.5,.32-1.17,.17-1.5-.33-3.22-4.93-6.49-9.83-9.8-14.68l-3.3,2.25-3.3,2.25-1.77,1.21-6.6,4.5,4.46,6.61c3.41,5.08,6.75,10.21,10.04,15.36l6.74-4.29c-3.12-4.91-6.3-9.78-9.53-14.62-.33-.5-.2-1.16,.29-1.49,.49-.33,1.16-.19,1.5,.3,3.24,4.85,6.42,9.73,9.56,14.66l3.37-2.14,3.37-2.15,1.81-1.15,6.74-4.29c-1.49-2.31-2.95-4.65-4.47-6.94-3.46-5.3-6.96-10.56-10.51-15.77Z"/><path class="d" d="M253.9,104.78v-21.22c-5.01,1.65-9.19,4.91-10.28,5.63l10.28,15.59Z"/><path class="d" d="M129.48,195.22l6.74-4.29,5.43-3.45,1.15-.73,2.59-1.65,9.57-6.09c-3.92-6.29-13.09-21.15-19.65-16.69-4.97,3.42-.14,12.32,4.05,19.05,.17,.27,.05,.64-.27,.85-.32,.21-.71,.16-.89-.1-4.42-6.57-10.94-14.32-15.93-10.91-3.25,2.23-2.34,6.75-.2,11.44,2.15,4.69,5.51,9.56,7.42,12.57Z"/><path class="d" d="M225.5,101.43c2.65,9.28,5.2,18.56,7.54,27.9l8.27-5.26c-1.09-3.78-2.19-7.58-3.34-11.34-.37-1.22,1.02-2.12,1.98-1.27,2.94,2.58,5.86,5.22,8.77,7.88l5.17-3.29v-5.08c-6.55-5.31-13.14-10.45-19.73-15.46l-8.67,5.91Z"/><path class="d" d="M164.06,161.23c2.73,2.26,5.41,4.54,8.09,6.83l8.66-5.52c-7.11-5.43-14.36-10.71-21.65-15.92l-8.66,5.9c2.18,8.58,4.22,17.08,5.98,25.51l8.26-5.26c-.86-3.42-1.73-6.85-2.66-10.28-.3-1.11,1.09-2.01,1.98-1.27Z"/><path class="d" d="M211.96,165.8c2.05-1.22,2.71-3.85,1.49-5.88-1.23-2.02-3.87-2.65-5.9-1.4-2.03,1.25-2.69,3.88-1.48,5.87,1.21,1.99,3.85,2.62,5.89,1.4Z"/><path class="d" d="M207.23,158.01c2.03-1.25,2.66-3.89,1.41-5.9-1.25-2.01-3.9-2.6-5.92-1.33-2,1.27-2.64,3.92-1.4,5.9,1.24,1.98,3.88,2.58,5.91,1.33Z"/><path class="d" d="M216.56,173.64c2.07-1.19,2.78-3.81,1.58-5.85-1.2-2.04-3.83-2.7-5.88-1.48-2.05,1.22-2.75,3.84-1.57,5.84,1.18,2,3.81,2.67,5.87,1.48Z"/><path class="d" d="M187.94,170.42l2.76,4.56c1.44,2.34,2.81,4.71,4.2,7.06l1.62,2.77,15.14-8.75c-4.77-1.22-9.49-2.39-14.23-3.5-.24-.05-.45-.2-.57-.41l-.02-.03c-.24-.4-.13-.93,.27-1.22,3.84-2.86,7.08-6.6,4.55-10.71-4.07-6.53-13.74,.4-18.12,3.16l1.67,2.67,2.74,4.39Z"/><path class="d" d="M232.35,132.47l-6.75,4.27,4.7,7.53,4.61,7.6c.31,.53,.15,1.2-.36,1.5-.51,.3-1.17,.12-1.48-.4l-4.6-7.58-4.69-7.51-3.38,2.14-3.38,2.13-1.81,1.15-6.75,4.27,4.21,6.75,4.76,7.83,4.64,7.89,6.92-4-4.42-7.53-4.52-7.47c-.31-.51-.16-1.17,.34-1.48,.5-.31,1.17-.15,1.48,.36l4.54,7.49,4.44,7.55,3.46-2,3.46-2,1.86-1.07,6.91-4-4.21-7.17-4.94-8.18-5.04-8.09Z"/><path class="d" d="M138.98,210.6c1.19,2.15,2.4,4.1,3.26,5.59l6.92-3.99,5.57-3.22,1.18-.68,2.66-1.54,9.83-5.68c-.91-1.58-2.12-3.68-3.48-5.89-1.37-2.21-2.99-4.52-4.66-6.51-3.41-3.97-7.19-6.61-10.53-4.49-5.08,3.25-.74,12.06,3.05,18.75,.15,.26,0,.63-.31,.82-.32,.19-.71,.14-.87-.12-4.03-6.53-10.1-14.25-15.2-11.01-3.32,2.12-2.68,6.54-.79,11.15,.91,2.3,2.18,4.66,3.38,6.82Z"/><path class="d" d="M241.94,126.41c2.38,9.44,4.59,18.91,6.59,28.39l5.37-3.1v-28.32c-1.03-.86-2.06-1.72-3.09-2.57l-8.86,5.61Z"/><path class="d" d="M178.32,183.87c2.6,2.32,5.14,4.65,7.72,7.01l8.89-5.14c-6.85-5.62-13.79-11.08-20.82-16.43l-8.85,5.6c1.79,8.51,3.37,16.94,4.71,25.26l8.47-4.9c-.7-3.39-1.38-6.8-2.14-10.21-.25-1.11,1.18-1.95,2.03-1.19Z"/><path class="d" d="M225.78,190.29c2.1-1.11,2.94-3.72,1.8-5.79-1.14-2.07-3.75-2.81-5.83-1.66-2.08,1.16-2.87,3.74-1.75,5.77,1.12,2.03,3.67,2.79,5.79,1.67Z"/><path class="d" d="M221.46,182.32c2.08-1.15,2.88-3.77,1.69-5.82-1.17-2.05-3.79-2.76-5.86-1.57s-2.81,3.79-1.66,5.81c1.16,2.01,3.73,2.74,5.83,1.58Z"/><path class="d" d="M229.96,198.32c2.12-1.07,3-3.66,1.91-5.75-1.1-2.09-3.7-2.87-5.81-1.75-2.1,1.12-2.93,3.68-1.85,5.73,1.07,2.05,3.62,2.85,5.75,1.77Z"/><path class="d" d="M201.6,193.82l2.54,4.62,3.79,7.17,1.43,2.82,15.58-7.94c-4.63-1.47-9.35-2.83-13.98-4.14-.24-.07-.43-.22-.54-.43l-.02-.03c-.21-.41-.08-.93,.33-1.2,3.98-2.66,7.37-6.22,5.07-10.43-3.75-6.66-13.74-.15-18.23,2.41l1.54,2.7c.85,1.48,1.68,2.97,2.49,4.46Z"/><path class="d" d="M248.97,179c-.52,.28-1.18,.07-1.46-.47-2.78-5.24-5.66-10.43-8.6-15.56l-3.47,1.98-3.46,1.98-1.86,1.07-6.93,3.97c1.3,2.31,2.65,4.59,3.9,6.91,2.95,5.33,5.83,10.7,8.58,16.13l7.12-3.63c-1.3-2.61-2.67-5.17-4.03-7.75-1.34-2.58-2.76-5.13-4.16-7.68-.29-.52-.1-1.18,.42-1.47,.52-.29,1.17-.09,1.46,.43,1.4,2.56,2.83,5.11,4.17,7.71,1.36,2.59,2.75,5.16,4.05,7.78l3.56-1.81,3.56-1.81,1.91-.97,.18-.09v-16.69c-.5-.91-1-1.82-1.5-2.73-1.53-2.82-3.12-5.59-4.7-8.37l-6.93,3.97c2.96,5.15,5.84,10.36,8.63,15.62,.29,.54,.09,1.2-.43,1.48Z"/><path class="d" d="M147.75,224.66c.39,1.13,.86,2.28,1.37,3.41,.49,1.13,1.01,2.24,1.54,3.3,1.08,2.09,2.08,4.04,2.84,5.51l7.12-3.63,5.73-2.92,1.21-.62,2.74-1.39,10.11-5.15c-.78-1.58-1.84-3.68-3.08-5.9-.62-1.11-1.27-2.24-1.98-3.35-.72-1.11-1.48-2.19-2.26-3.19-1.55-2-3.25-3.68-4.99-4.61-1.73-.93-3.49-1.11-5.2-.13-2.62,1.51-2.97,4.46-2.22,7.85,.68,3.39,2.5,7.23,4.13,10.56,.13,.26-.03,.61-.36,.79-.33,.18-.71,.11-.85-.15-1.76-3.25-4.09-6.81-6.55-9.17-2.53-2.37-5.22-3.53-7.84-2.02-1.71,.98-2.47,2.56-2.59,4.45-.06,.95,.03,1.97,.25,3.04,.2,1.07,.5,2.19,.89,3.32Z"/><path class="d" d="M191.31,206.69c2.41,2.39,4.9,4.79,7.25,7.23l9.15-4.66c-6.48-5.87-13.06-11.56-19.82-17.07l-9.09,5.21c1.38,8.43,2.42,16.76,3.22,24.96l8.72-4.44c-.42-3.36-.99-6.73-1.51-10.12-.17-1.1,1.29-1.87,2.08-1.09Z"/><path class="d" d="M238.2,215.37c2.17-.99,3.13-3.52,2.15-5.66-.98-2.14-3.59-3-5.72-1.97-2.16,1.04-3.05,3.55-2.09,5.64,.96,2.09,3.5,2.98,5.67,1.99Z"/><path class="d" d="M234.36,207.2c2.15-1.03,3.06-3.59,2.03-5.71-1.05-2.11-3.65-2.94-5.77-1.86-2.13,1.08-2.99,3.62-1.97,5.68,1,2.07,3.56,2.92,5.71,1.89Z"/><path class="d" d="M241.86,223.6c2.19-.94,3.2-3.45,2.26-5.6-.92-2.16-3.52-3.07-5.67-2.09-2.18,1-3.11,3.48-2.21,5.59,.92,2.1,3.44,3.04,5.63,2.1Z"/><path class="d" d="M213.89,217.56c.76,1.56,1.52,3.12,2.23,4.69,1.1,2.43,2.27,4.84,3.3,7.28l1.25,2.86,16.05-6.94-6.82-2.52-6.86-2.38c-.23-.08-.41-.24-.51-.46l-.02-.03c-.19-.42-.01-.92,.41-1.17,4.14-2.42,7.77-5.78,5.68-10.07-1.63-3.41-5.09-3.63-8.67-2.69-3.58,.93-7.31,3-9.62,4.16l1.39,2.74,2.19,4.53Z"/><path class="d" d="M249.28,190.63l-3.57,1.8-1.92,.96-7.13,3.59c1.21,2.35,2.36,4.72,3.5,7.1,1.35,2.73,2.62,5.48,3.88,8.25,1.29,2.75,2.49,5.54,3.71,8.32l6.14-2.66v-3.24c-.77-1.76-1.54-3.52-2.36-5.26-1.22-2.64-2.42-5.3-3.71-7.91-.26-.54-.04-1.18,.49-1.44,.53-.26,1.18-.03,1.44,.51,1.3,2.62,2.5,5.29,3.72,7.95,.14,.3,.27,.61,.41,.91v-18.58c-.35-.7-.69-1.41-1.05-2.11l-3.57,1.8Z"/><path class="d" d="M163.12,257.27l7.33-3.17,5.9-2.55,1.25-.54,2.82-1.22,10.41-4.5c-1.35-3.15-3.54-8.43-6.39-12.48-1.44-2.02-2.97-3.74-4.64-4.72-1.67-.98-3.4-1.22-5.17-.33-5.37,2.75-2.14,11.38,.64,17.97,.11,.26-.07,.59-.41,.75-.34,.15-.72,.07-.84-.18-3.04-6.46-8.08-14.17-13.47-11.43-1.76,.89-2.61,2.39-2.86,4.22-.25,1.83,.04,3.97,.66,6.19,1.22,4.43,3.52,9.12,4.75,12Z"/><path class="d" d="M201.48,240.68l-.35-4.98-.46-5.01c-.1-1.09,1.4-1.77,2.14-.97l3.41,3.71,3.32,3.76,9.43-4.08c-6.01-6.16-12.27-12.08-18.63-17.83l-9.36,4.71c.81,8.33,1.37,16.53,1.51,24.57l8.98-3.89Z"/><path class="d" d="M248.92,241.07c2.23-.83,3.36-3.28,2.51-5.47-.84-2.19-3.32-3.24-5.54-2.35-2.2,.89-3.32,3.34-2.5,5.47,.82,2.13,3.3,3.18,5.53,2.35Z"/><path class="d" d="M245.66,232.7c2.21-.89,3.28-3.36,2.39-5.54-.88-2.18-3.41-3.17-5.61-2.22-2.18,.94-3.23,3.41-2.37,5.53,.87,2.12,3.37,3.11,5.58,2.23Z"/><path class="d" d="M251.97,249.5c.79-.27,1.44-.76,1.93-1.35v-5.27c-1.11-1.35-3-1.92-4.76-1.26-2.23,.84-3.42,3.26-2.64,5.4,.77,2.14,3.23,3.25,5.48,2.48Z"/><path class="d" d="M224.55,241.66c.64,1.58,1.23,3.18,1.85,4.77l1.41,3.68,1.33,3.7,1.04,2.9,16.51-5.74c-4.46-2.02-8.79-3.96-13.27-5.78-.23-.09-.4-.27-.48-.48v-.04c-.18-.42,.03-.91,.47-1.13,4.27-2.12,8.18-5.22,6.38-9.6-2.86-6.98-13.55-1.68-18.31,.34,.41,.92,.77,1.86,1.16,2.79l1.89,4.59Z"/><path class="d" d="M253.9,235.69v-15.24l-5.26,2.24c1.03,2.42,2.01,4.87,3.02,7.3,.78,1.89,1.51,3.79,2.24,5.7Z"/><path class="d" d="M169.07,271.98c.66,2.04,1.38,3.9,1.89,5.31l7.54-2.62,6.08-2.11,1.28-.45,2.9-1.01,10.72-3.73c-.57-1.57-1.28-3.67-2.14-5.89-.9-2.22-2-4.56-3.21-6.61-2.56-4.1-5.69-6.99-9.35-5.43-5.5,2.41-3.05,10.91-.8,17.43,.09,.26-.13,.57-.48,.7-.35,.13-.71,.03-.81-.22-2.53-6.4-6.85-14.11-12.42-11.7-3.59,1.56-3.89,5.6-3,9.9,.38,2.15,1.09,4.38,1.79,6.42Z"/><path class="d" d="M210.46,258.68c.02-1.64,0-3.28-.05-4.93-.03-1.07,1.52-1.65,2.21-.82,2.12,2.55,4.06,5.14,6.12,7.75l9.7-3.37c-5.55-6.46-11.31-12.67-17.21-18.67l-9.64,4.11c.18,8.2,.07,16.22-.39,24.04l9.24-3.21,.02-4.89Z"/><path class="d" d="M253.9,266.76v-6.7c-1.42,1.05-2.13,2.84-1.61,4.55,.29,.91,.87,1.64,1.61,2.15Z"/><path class="d" d="M253.9,259v-8.34c-.49,0-.98,.05-1.47,.22-2.25,.78-3.5,3.15-2.78,5.31,.61,1.79,2.37,2.89,4.25,2.81Z"/><path class="d" d="M233.28,266.11l1.47,4.82c.75,2.48,1.39,4.98,2.1,7.47,.28,.97,.52,1.95,.76,2.93l16.29-4.16v-.53c-3.97-2.24-8.07-4.36-12.04-6.4-.21-.11-.38-.29-.44-.51v-.04c-.14-.43,.1-.9,.56-1.08,4.45-1.77,8.51-4.52,7.14-9.02-2.36-7.12-13.39-2.63-18.29-.97l.94,2.83c.51,1.55,1.05,3.1,1.51,4.66Z"/><path class="d" d="M175.48,291.67c.47,1.99,1.08,3.81,1.38,5.19l7.74-1.98,6.23-1.59,1.32-.34,2.98-.76,10.99-2.81c-.35-1.56-.94-3.65-1.6-5.86-.64-2.21-1.56-4.56-2.61-6.63-1.02-2.07-2.34-3.86-3.81-4.97-1.47-1.11-3.12-1.53-4.99-.89-2.85,.98-3.85,3.59-3.89,6.72-.02,1.57,.12,3.27,.43,4.98,.15,.86,.35,1.72,.54,2.56,.17,.85,.37,1.68,.57,2.48,.06,.25-.17,.54-.54,.64-.36,.1-.71-.02-.79-.27-.24-.79-.49-1.6-.77-2.41-.29-.81-.63-1.62-.98-2.41-.71-1.58-1.48-3.07-2.43-4.3-1.91-2.47-4.23-3.87-7.08-2.89-1.86,.64-2.95,1.93-3.51,3.57-.56,1.64-.55,3.64-.38,5.72,.2,2.08,.73,4.25,1.18,6.23Z"/><path class="d" d="M218.23,276.93c.06-1.04,1.65-1.5,2.26-.64,1.77,2.65,3.66,5.32,5.37,8.04l9.95-2.54c-4.98-6.79-10.09-13.31-15.55-19.58l-9.92,3.38c-.42,8-1.33,15.8-2.48,23.34l9.48-2.42c.38-3.16,.58-6.35,.87-9.58Z"/><path class="d" d="M248.39,281.33c-3.69,.14-7.79,1.32-10.3,1.94l.71,2.85c.41,1.56,.7,3.14,1.06,4.71,.34,1.62,.74,3.24,1.04,4.86,.46,2.51,.97,5.02,1.39,7.53l.46,2.95,11.16-1.76v-5.07c-1.97-1.27-3.94-2.51-5.9-3.72-.2-.13-.34-.32-.38-.55v-.04c-.09-.44,.21-.88,.68-1.02,2.09-.62,4.11-1.44,5.6-2.58v-9.05c-.17-.1-.34-.2-.52-.28-1.4-.67-3.14-.87-4.99-.8Z"/><path class="d" d="M180.81,315.93l7.89-1.24,6.35-1,1.34-.21,3.03-.48,11.21-1.77c-.24-1.55-.5-3.62-1.01-5.82-.48-2.2-1.05-4.54-1.97-6.63-1.69-4.18-4.4-7.31-8.21-6.34-5.84,1.51-4.82,9.66-3.91,15.95,.04,.25-.22,.5-.59,.57-.37,.07-.71-.08-.76-.32-1.2-6.23-4.2-13.88-10.05-12.38-3.84,.97-4.72,4.6-4.74,8.58,.06,2,.25,4.09,.56,6.03,.34,1.94,.63,3.71,.84,5.05Z"/><path class="d" d="M227.26,285.94l-10.17,2.52c-.54,3.88-1.32,7.7-2.03,11.45-.86,3.75-1.62,7.43-2.64,11.04l9.67-1.52c.31-1.52,.68-3.06,.95-4.6l.82-4.66c.18-1.01,1.8-1.33,2.31-.43l2.35,4.14c.79,1.39,1.49,2.79,2.24,4.19l10.15-1.6c-2.07-3.57-4.38-7.05-6.58-10.47-2.35-3.41-4.6-6.77-7.07-10.05Z"/><path class="d" d="M244.07,315.73c.23,1.63,.38,3.26,.52,4.89,.23,2.52,.51,5.04,.63,7.55l.18,2.96,8.5-.46v-7.74c-.73-.56-1.47-1.13-2.21-1.68-.19-.14-.31-.35-.33-.58v-.04c-.04-.44,.29-.84,.77-.93,.59-.11,1.19-.24,1.77-.39v-12.12c-.13-.01-.27-.02-.41-.03-3.69-.21-7.88,.59-10.44,.97,.15,.96,.32,1.91,.42,2.87l.6,4.73Z"/><path class="d" d="M197.6,329.19c-.38,.03-.7-.14-.73-.38-.19-1.54-.44-3.17-.79-4.73-.33-1.56-.93-3.07-1.58-4.35-1.32-2.56-3.4-4.2-6.38-3.74-1.95,.3-3.23,1.3-4.08,2.7-.89,1.4-1.33,3.19-1.48,5.1-.18,1.91-.21,3.94-.06,5.83,.11,1.89,.21,3.62,.31,4.94l7.97-.44,6.42-.35,1.36-.07,3.07-.17,11.33-.62c-.12-1.54-.14-3.58-.4-5.77-.29-2.19-.62-4.53-1.29-6.64-.69-2.11-1.58-3.99-2.78-5.25-1.24-1.27-2.82-1.92-4.76-1.63-2.98,.46-4.38,2.71-5.09,5.58-.36,1.43-.42,3.04-.5,4.66-.06,1.62,0,3.28,.12,4.84,.02,.25-.27,.47-.64,.49Z"/><path class="d" d="M225.94,327.86c.48-1.48,.85-2.98,1.28-4.49,.27-.98,1.92-1.13,2.34-.2,.63,1.42,1.34,2.85,1.93,4.28l1.81,4.34,10.26-.56-2.67-5.53-2.85-5.42c-.91-1.79-1.96-3.56-2.96-5.31-1.01-1.75-1.97-3.49-3.06-5.21l-10.36,1.55c-.44,1.87-1.01,3.71-1.53,5.54-.54,1.83-1.03,3.64-1.65,5.43l-1.77,5.32-1.95,5.2,9.77-.53,1.4-4.42Z"/><path class="d" d="M245.72,349.36l-.15,3.77-.11,2.95,8.44,.43v-8.49l-1.16-1.08c-.18-.16-.27-.38-.27-.6v-.04c0-.44,.38-.8,.87-.85,.19-.02,.38-.05,.56-.06v-12.44c-3.07-.22-6.27,.04-8.37,.14l.09,2.88,.14,4.73c.02,1.63-.01,3.26,0,4.89-.01,1.26,0,2.52-.02,3.77Z"/><path class="d" d="M197.25,353.61l1.36,.07,3.07,.16,11.33,.58c.05-1.53,.17-3.55,.2-5.73-.03-2.18-.21-4.52-.59-6.65-.94-4.28-2.81-7.68-6.79-7.48-6,.35-6.74,8.05-7.03,14.17-.02,.24-.33,.43-.71,.42-.38-.01-.67-.21-.67-.45,0-6.11-1.31-13.71-7.35-13.37-3.9,.21-5.66,3.34-6.36,7.01-.44,1.83-.58,3.82-.66,5.67-.15,1.85-.17,3.57-.21,4.87l7.98,.41,6.42,.33Z"/><path class="d" d="M226.42,350.79l.93-2.14,.84-2.15c.36-.93,2.02-.91,2.35,.05l.77,2.21,.68,2.22,1.38,4.48,10.26,.53c-2.71-7.75-5.86-15.22-9.23-22.39l-10.47,.49c-2.76,7.12-5.75,13.93-9.11,20.42l9.77,.5,1.83-4.22Z"/><path class="d" d="M242.87,380.88l11.03,1.75v-6.76c-.93-1.11-1.86-2.22-2.82-3.31-.16-.18-.23-.41-.21-.63v-.03c.05-.44,.46-.76,.95-.75,.7,.02,1.39,0,2.08-.03v-12.3c-3.09-.57-6.4-.66-8.54-.79l-.21,2.86c-.12,1.57-.2,3.14-.36,4.71l-.52,4.86c-.22,2.51-.62,4.99-.98,7.49l-.41,2.93Z"/><path class="d" d="M195.19,373.32l1.34,.21,3.03,.48,11.21,1.78c.21-1.52,.54-3.53,.79-5.7,.25-2.17,.27-4.52,.12-6.68-.07-1.08-.26-2.12-.55-3.07-.28-.95-.64-1.81-1.11-2.54-.94-1.46-2.31-2.4-4.28-2.51-3.01-.17-4.93,1.67-6.14,4.27-.57,1.3-1.11,2.8-1.48,4.35-.4,1.55-.58,3.17-.88,4.68-.04,.24-.37,.39-.75,.34-.37-.05-.65-.28-.62-.52,.23-1.52,.23-3.14,.21-4.72-.05-1.58-.17-3.12-.62-4.48-.85-2.72-2.45-4.67-5.47-4.84-1.97-.11-3.47,.57-4.6,1.72-.57,.57-1.04,1.26-1.44,2.03-.39,.77-.71,1.62-1.04,2.5-.63,1.78-.93,3.73-1.26,5.57-.34,1.84-.53,3.56-.71,4.86l7.89,1.25,6.35,1.01Z"/><path class="d" d="M224.48,373.59c.75-1.35,1.55-2.71,2.22-4.08,.46-.89,2.1-.69,2.33,.3,.39,1.51,.65,3.03,.96,4.56l.9,4.62,10.14,1.61c-1.93-8.02-4.16-15.77-6.82-23.24l-10.46-.62c-3.43,6.76-7.23,13.2-11.2,19.34l9.67,1.53,2.26-4.02Z"/><path class="d" d="M253.83,385.58c-3.58-1.68-8.47-2.28-11.29-2.76l-.5,2.76h11.79Z"/><path class="d" d="M192.93,383.35c.12-1.6,.18-3.17-.13-4.58-.55-2.82-1.95-4.96-4.93-5.44-1.95-.32-3.51,.21-4.75,1.25-.62,.52-1.17,1.16-1.65,1.9-.24,.37-.46,.76-.67,1.16-.23,.41-.44,.83-.64,1.26-.82,1.74-1.34,3.69-1.85,5.53-.11,.39-.22,.77-.32,1.15h14.7c.1-.74,.17-1.48,.24-2.22Z"/><path class="d" d="M208.43,385.58c.02-.3,.04-.61,.05-.9,.01-.55,.01-1.09-.01-1.61-.05-.52-.11-1.04-.2-1.53-.18-.98-.45-1.89-.84-2.67-.78-1.57-2.04-2.65-3.99-2.97-2.98-.48-5.08,1.16-6.56,3.65-.7,1.25-1.42,2.71-1.95,4.23-.22,.59-.4,1.19-.58,1.79h14.07Z"/><path class="d" d="M231.54,380.96l-10.33-1.72-3.15,4.74c-.35,.54-.73,1.07-1.11,1.6h15.63l-1.04-4.61Z"/></g></g></svg>