<svg width="256" height="256" viewBox="0 0 256 256" fill="none" xmlns="http://www.w3.org/2000/svg">
<rect width="256" height="256" fill="#5A4533"/>
<g clip-path="url(#clip0_19_9)">
<path d="M118.233 30.8772C118.233 33.5764 116.128 35.7646 113.532 35.7646C110.936 35.7646 108.831 33.5764 108.831 30.8772C108.831 28.178 110.936 25.9897 113.532 25.9897C116.128 25.9897 118.233 28.178 118.233 30.8772Z" fill="#C2ECFD"/>
<path d="M118.233 20.4097C118.233 23.1089 116.128 25.2971 113.532 25.2971C110.936 25.2971 108.831 23.1089 108.831 20.4097C108.831 17.7104 110.936 15.5222 113.532 15.5222C116.128 15.5222 118.233 17.7104 118.233 20.4097Z" fill="#C2ECFD"/>
<path d="M118.233 41.345C118.233 44.0442 116.128 46.2324 113.532 46.2324C110.936 46.2324 108.831 44.0442 108.831 41.345C108.831 38.6457 110.936 36.4575 113.532 36.4575C116.128 36.4575 118.233 38.6457 118.233 41.345Z" fill="#C2ECFD"/>
<path d="M94.7845 33.0932V33.0472C94.7845 32.4769 95.2013 32.0034 95.7472 31.9461C101.072 31.3871 106.309 29.5729 106.309 23.8537C106.309 14.7551 93.0523 15.5394 87.2734 15.5394V19.3653V25.6626V32.1687V42.2188V46.1541H106.793L95.0936 33.8723C94.896 33.6655 94.7858 33.3856 94.7858 33.0939" fill="#C2ECFD"/>
<path d="M143.838 15.4978V35.6165C143.838 36.3047 143.301 36.8624 142.639 36.8624C141.978 36.8624 141.442 36.3047 141.442 35.6165V15.4985H136.981H132.52H130.124H121.203V24.7735V46.1381H130.124V26.0188C130.124 25.3306 130.66 24.7735 131.322 24.7735C131.984 24.7735 132.52 25.3306 132.52 26.0188V46.1381H136.981H141.442H143.838H152.759V36.8631V15.4978H143.838Z" fill="#C2ECFD"/>
<path d="M189.133 46.1376C192.379 46.1376 213.839 47.5744 213.839 30.9069C213.839 14.2395 192.158 15.6763 189.133 15.6763" fill="#C2ECFD"/>
<path d="M43.6132 15C36.8907 15 35.7563 27.6987 35.5935 37.8976C35.5872 38.3 35.2471 38.622 34.8278 38.622C34.4085 38.622 34.069 38.3 34.0621 37.8976C33.9006 27.6987 32.7662 15 26.0437 15C17.2589 15 18.0164 36.6853 18.0164 46.1388H26.9088H34.0716H35.5859H39.0061H51.6405C51.6405 36.6853 52.398 15 43.6132 15Z" fill="#C2ECFD"/>
<path d="M166.48 46.1692H155.563L165.669 15.5645H177.356L187.733 46.1686H176.277L172.835 33.6997C172.46 32.3412 170.616 32.3208 170.213 33.6701L166.48 46.1686L166.48 46.1692Z" fill="#C2ECFD"/>
<path d="M64.5578 46.1375H53.6602L63.749 15.5847H75.4169L85.7749 46.1375H74.3383L70.9023 33.6897C70.5279 32.3332 68.6861 32.3128 68.2839 33.6607L64.5578 46.1375Z" fill="#C2ECFD"/>
<path d="M223.668 37.9154C223.668 32.8673 229.645 32.7316 238 32.7277V29.0651C229.8 29.0611 223.668 28.9228 223.668 23.8774C223.668 18.8292 229.645 18.6936 238 18.6896V15.3853H217.006V46.4286H238V43.1031C229.8 43.0998 223.668 42.9609 223.668 37.9154Z" fill="#C2ECFD"/>
</g>
<g clip-path="url(#clip1_19_9)">
<path d="M118.233 69.6391C118.233 72.3384 116.128 74.5266 113.532 74.5266C110.936 74.5266 108.831 72.3384 108.831 69.6391C108.831 66.9399 110.936 64.7517 113.532 64.7517C116.128 64.7517 118.233 66.9399 118.233 69.6391Z" fill="#C2ECFD"/>
<path d="M118.233 59.1716C118.233 61.8708 116.128 64.0591 113.532 64.0591C110.936 64.0591 108.831 61.8708 108.831 59.1716C108.831 56.4724 110.936 54.2842 113.532 54.2842C116.128 54.2842 118.233 56.4724 118.233 59.1716Z" fill="#C2ECFD"/>
<path d="M118.233 80.1069C118.233 82.8061 116.128 84.9944 113.532 84.9944C110.936 84.9944 108.831 82.8061 108.831 80.1069C108.831 77.4077 110.936 75.2195 113.532 75.2195C116.128 75.2195 118.233 77.4077 118.233 80.1069Z" fill="#C2ECFD"/>
<path d="M94.7845 71.8552V71.8091C94.7845 71.2388 95.2013 70.7654 95.7472 70.7081C101.072 70.149 106.309 68.3348 106.309 62.6157C106.309 53.5171 93.0523 54.3014 87.2734 54.3014V58.1273V64.4246V70.9307V80.9808V84.916H106.793L95.0936 72.6342C94.896 72.4275 94.7858 72.1476 94.7858 71.8559" fill="#C2ECFD"/>
<path d="M143.838 54.2598V74.3785C143.838 75.0666 143.301 75.6244 142.639 75.6244C141.978 75.6244 141.442 75.0666 141.442 74.3785V54.2604H136.981H132.52H130.124H121.203V63.5355V84.9001H130.124V64.7807C130.124 64.0926 130.66 63.5355 131.322 63.5355C131.984 63.5355 132.52 64.0926 132.52 64.7807V84.9001H136.981H141.442H143.838H152.759V75.625V54.2598H143.838Z" fill="#C2ECFD"/>
<path d="M189.133 84.8995C192.379 84.8995 213.839 86.3364 213.839 69.6689C213.839 53.0014 192.158 54.4383 189.133 54.4383" fill="#C2ECFD"/>
<path d="M43.6132 53.762C36.8907 53.762 35.7563 66.4606 35.5935 76.6596C35.5872 77.0619 35.2471 77.3839 34.8278 77.3839C34.4085 77.3839 34.069 77.0619 34.0621 76.6596C33.9006 66.4606 32.7662 53.762 26.0437 53.762C17.2589 53.762 18.0164 75.4473 18.0164 84.9008H26.9088H34.0716H35.5859H39.0061H51.6405C51.6405 75.4473 52.398 53.762 43.6132 53.762Z" fill="#C2ECFD"/>
<path d="M166.48 84.9312H155.563L165.669 54.3264H177.356L187.733 84.9305H176.277L172.835 72.4617C172.46 71.1032 170.616 71.0828 170.213 72.4321L166.48 84.9305L166.48 84.9312Z" fill="#C2ECFD"/>
<path d="M64.5578 84.8994H53.6602L63.749 54.3467H75.4169L85.7749 84.8994H74.3383L70.9023 72.4517C70.5279 71.0952 68.6861 71.0747 68.2839 72.4227L64.5578 84.8994Z" fill="#C2ECFD"/>
<path d="M223.668 76.6774C223.668 71.6293 229.645 71.4936 238 71.4897V67.827C229.8 67.8231 223.668 67.6848 223.668 62.6393C223.668 57.5912 229.645 57.4556 238 57.4516V54.1472H217.006V85.1906H238V81.8651C229.8 81.8618 223.668 81.7229 223.668 76.6774Z" fill="#C2ECFD"/>
</g>
<g clip-path="url(#clip2_19_9)">
<path d="M118.233 108.401C118.233 111.1 116.128 113.288 113.532 113.288C110.936 113.288 108.831 111.1 108.831 108.401C108.831 105.702 110.936 103.513 113.532 103.513C116.128 103.513 118.233 105.702 118.233 108.401Z" fill="#C2ECFD"/>
<path d="M118.233 97.9333C118.233 100.633 116.128 102.821 113.532 102.821C110.936 102.821 108.831 100.633 108.831 97.9333C108.831 95.2341 110.936 93.0459 113.532 93.0459C116.128 93.0459 118.233 95.2341 118.233 97.9333Z" fill="#C2ECFD"/>
<path d="M118.233 118.869C118.233 121.568 116.128 123.756 113.532 123.756C110.936 123.756 108.831 121.568 108.831 118.869C108.831 116.169 110.936 113.981 113.532 113.981C116.128 113.981 118.233 116.169 118.233 118.869Z" fill="#C2ECFD"/>
<path d="M94.7845 110.617V110.571C94.7845 110.001 95.2013 109.527 95.7472 109.47C101.072 108.911 106.309 107.097 106.309 101.377C106.309 92.2788 93.0523 93.0631 87.2734 93.0631V96.889V103.186V109.692V119.743V123.678H106.793L95.0936 111.396C94.896 111.189 94.7858 110.909 94.7858 110.618" fill="#C2ECFD"/>
<path d="M143.838 93.0215V113.14C143.838 113.828 143.301 114.386 142.639 114.386C141.978 114.386 141.442 113.828 141.442 113.14V93.0221H136.981H132.52H130.124H121.203V102.297V123.662H130.124V103.542C130.124 102.854 130.66 102.297 131.322 102.297C131.984 102.297 132.52 102.854 132.52 103.542V123.662H136.981H141.442H143.838H152.759V114.387V93.0215H143.838Z" fill="#C2ECFD"/>
<path d="M189.133 123.661C192.379 123.661 213.839 125.098 213.839 108.431C213.839 91.7632 192.158 93.2 189.133 93.2" fill="#C2ECFD"/>
<path d="M43.6132 92.5237C36.8907 92.5237 35.7563 105.222 35.5935 115.421C35.5872 115.824 35.2471 116.146 34.8278 116.146C34.4085 116.146 34.069 115.824 34.0621 115.421C33.9006 105.222 32.7662 92.5237 26.0437 92.5237C17.2589 92.5237 18.0164 114.209 18.0164 123.663H26.9088H34.0716H35.5859H39.0061H51.6405C51.6405 114.209 52.398 92.5237 43.6132 92.5237Z" fill="#C2ECFD"/>
<path d="M166.48 123.693H155.563L165.669 93.0881H177.356L187.733 123.692H176.277L172.835 111.223C172.46 109.865 170.616 109.845 170.213 111.194L166.48 123.692L166.48 123.693Z" fill="#C2ECFD"/>
<path d="M64.5578 123.661H53.6602L63.749 93.1084H75.4169L85.7749 123.661H74.3383L70.9023 111.213C70.5279 109.857 68.6861 109.836 68.2839 111.184L64.5578 123.661Z" fill="#C2ECFD"/>
<path d="M223.668 115.439C223.668 110.391 229.645 110.255 238 110.251V106.589C229.8 106.585 223.668 106.447 223.668 101.401C223.668 96.3529 229.645 96.2173 238 96.2133V92.9089H217.006V123.952H238V120.627C229.8 120.624 223.668 120.485 223.668 115.439Z" fill="#C2ECFD"/>
</g>
<g clip-path="url(#clip3_19_9)">
<path d="M118.233 148.21C118.233 150.91 116.128 153.098 113.532 153.098C110.936 153.098 108.831 150.91 108.831 148.21C108.831 145.511 110.936 143.323 113.532 143.323C116.128 143.323 118.233 145.511 118.233 148.21Z" fill="#C2ECFD"/>
<path d="M118.233 137.743C118.233 140.442 116.128 142.63 113.532 142.63C110.936 142.63 108.831 140.442 108.831 137.743C108.831 135.044 110.936 132.855 113.532 132.855C116.128 132.855 118.233 135.044 118.233 137.743Z" fill="#C2ECFD"/>
<path d="M118.233 158.678C118.233 161.377 116.128 163.566 113.532 163.566C110.936 163.566 108.831 161.377 108.831 158.678C108.831 155.979 110.936 153.791 113.532 153.791C116.128 153.791 118.233 155.979 118.233 158.678Z" fill="#C2ECFD"/>
<path d="M94.7845 150.426V150.38C94.7845 149.81 95.2013 149.337 95.7472 149.279C101.072 148.72 106.309 146.906 106.309 141.187C106.309 132.088 93.0523 132.873 87.2734 132.873V136.699V142.996V149.502V159.552V163.487H106.793L95.0936 151.206C94.896 150.999 94.7858 150.719 94.7858 150.427" fill="#C2ECFD"/>
<path d="M143.838 132.831V152.95C143.838 153.638 143.301 154.196 142.639 154.196C141.978 154.196 141.442 153.638 141.442 152.95V132.832H136.981H132.52H130.124H121.203V142.107V163.471H130.124V143.352C130.124 142.664 130.66 142.107 131.322 142.107C131.984 142.107 132.52 142.664 132.52 143.352V163.471H136.981H141.442H143.838H152.759V154.196V132.831H143.838Z" fill="#C2ECFD"/>
<path d="M189.133 163.471C192.379 163.471 213.839 164.908 213.839 148.24C213.839 131.573 192.158 133.01 189.133 133.01" fill="#C2ECFD"/>
<path d="M43.6132 132.333C36.8907 132.333 35.7563 145.032 35.5935 155.231C35.5872 155.633 35.2471 155.955 34.8278 155.955C34.4085 155.955 34.069 155.633 34.0621 155.231C33.9006 145.032 32.7662 132.333 26.0437 132.333C17.2589 132.333 18.0164 154.019 18.0164 163.472H26.9088H34.0716H35.5859H39.0061H51.6405C51.6405 154.019 52.398 132.333 43.6132 132.333Z" fill="#C2ECFD"/>
<path d="M166.48 163.502H155.563L165.669 132.898H177.356L187.733 163.502H176.277L172.835 151.033C172.46 149.674 170.616 149.654 170.213 151.003L166.48 163.502L166.48 163.502Z" fill="#C2ECFD"/>
<path d="M64.5578 163.471H53.6602L63.749 132.918H75.4169L85.7749 163.471H74.3383L70.9023 151.023C70.5279 149.666 68.6861 149.646 68.2839 150.994L64.5578 163.471Z" fill="#C2ECFD"/>
<path d="M223.668 155.249C223.668 150.201 229.645 150.065 238 150.061V146.398C229.8 146.394 223.668 146.256 223.668 141.211C223.668 136.162 229.645 136.027 238 136.023V132.719H217.006V163.762H238V160.436C229.8 160.433 223.668 160.294 223.668 155.249Z" fill="#C2ECFD"/>
</g>
<g clip-path="url(#clip4_19_9)">
<path d="M118.233 186.972C118.233 189.672 116.128 191.86 113.532 191.86C110.936 191.86 108.831 189.672 108.831 186.972C108.831 184.273 110.936 182.085 113.532 182.085C116.128 182.085 118.233 184.273 118.233 186.972Z" fill="#C2ECFD"/>
<path d="M118.233 176.505C118.233 179.204 116.128 181.392 113.532 181.392C110.936 181.392 108.831 179.204 108.831 176.505C108.831 173.806 110.936 171.617 113.532 171.617C116.128 171.617 118.233 173.806 118.233 176.505Z" fill="#C2ECFD"/>
<path d="M118.233 197.44C118.233 200.139 116.128 202.328 113.532 202.328C110.936 202.328 108.831 200.139 108.831 197.44C108.831 194.741 110.936 192.553 113.532 192.553C116.128 192.553 118.233 194.741 118.233 197.44Z" fill="#C2ECFD"/>
<path d="M94.7845 189.188V189.142C94.7845 188.572 95.2013 188.099 95.7472 188.041C101.072 187.482 106.309 185.668 106.309 179.949C106.309 170.85 93.0523 171.635 87.2734 171.635V175.461V181.758V188.264V198.314V202.249H106.793L95.0936 189.967C94.896 189.761 94.7858 189.481 94.7858 189.189" fill="#C2ECFD"/>
<path d="M143.838 171.593V191.712C143.838 192.4 143.301 192.958 142.639 192.958C141.978 192.958 141.442 192.4 141.442 191.712V171.594H136.981H132.52H130.124H121.203V180.869V202.233H130.124V182.114C130.124 181.426 130.66 180.869 131.322 180.869C131.984 180.869 132.52 181.426 132.52 182.114V202.233H136.981H141.442H143.838H152.759V192.958V171.593H143.838Z" fill="#C2ECFD"/>
<path d="M189.133 202.233C192.379 202.233 213.839 203.67 213.839 187.002C213.839 170.335 192.158 171.772 189.133 171.772" fill="#C2ECFD"/>
<path d="M43.6132 171.095C36.8907 171.095 35.7563 183.794 35.5935 193.993C35.5872 194.395 35.2471 194.717 34.8278 194.717C34.4085 194.717 34.069 194.395 34.0621 193.993C33.9006 183.794 32.7662 171.095 26.0437 171.095C17.2589 171.095 18.0164 192.781 18.0164 202.234H26.9088H34.0716H35.5859H39.0061H51.6405C51.6405 192.781 52.398 171.095 43.6132 171.095Z" fill="#C2ECFD"/>
<path d="M166.48 202.264H155.563L165.669 171.66H177.356L187.733 202.264H176.277L172.835 189.795C172.46 188.436 170.616 188.416 170.213 189.765L166.48 202.264L166.48 202.264Z" fill="#C2ECFD"/>
<path d="M64.5578 202.233H53.6602L63.749 171.68H75.4169L85.7749 202.233H74.3383L70.9023 189.785C70.5279 188.428 68.6861 188.408 68.2839 189.756L64.5578 202.233Z" fill="#C2ECFD"/>
<path d="M223.668 194.011C223.668 188.963 229.645 188.827 238 188.823V185.16C229.8 185.156 223.668 185.018 223.668 179.973C223.668 174.924 229.645 174.789 238 174.785V171.48H217.006V202.524H238V199.198C229.8 199.195 223.668 199.056 223.668 194.011Z" fill="#C2ECFD"/>
</g>
<g clip-path="url(#clip5_19_9)">
<path d="M118.233 225.734C118.233 228.434 116.128 230.622 113.532 230.622C110.936 230.622 108.831 228.434 108.831 225.734C108.831 223.035 110.936 220.847 113.532 220.847C116.128 220.847 118.233 223.035 118.233 225.734Z" fill="#C2ECFD"/>
<path d="M118.233 215.267C118.233 217.966 116.128 220.154 113.532 220.154C110.936 220.154 108.831 217.966 108.831 215.267C108.831 212.568 110.936 210.379 113.532 210.379C116.128 210.379 118.233 212.568 118.233 215.267Z" fill="#C2ECFD"/>
<path d="M118.233 236.202C118.233 238.901 116.128 241.09 113.532 241.09C110.936 241.09 108.831 238.901 108.831 236.202C108.831 233.503 110.936 231.315 113.532 231.315C116.128 231.315 118.233 233.503 118.233 236.202Z" fill="#C2ECFD"/>
<path d="M94.7845 227.95V227.904C94.7845 227.334 95.2013 226.861 95.7472 226.803C101.072 226.244 106.309 224.43 106.309 218.711C106.309 209.612 93.0523 210.397 87.2734 210.397V214.223V220.52V227.026V237.076V241.011H106.793L95.0936 228.729C94.896 228.523 94.7858 228.243 94.7858 227.951" fill="#C2ECFD"/>
<path d="M143.838 210.355V230.474C143.838 231.162 143.301 231.72 142.639 231.72C141.978 231.72 141.442 231.162 141.442 230.474V210.356H136.981H132.52H130.124H121.203V219.631V240.995H130.124V220.876C130.124 220.188 130.66 219.631 131.322 219.631C131.984 219.631 132.52 220.188 132.52 220.876V240.995H136.981H141.442H143.838H152.759V231.72V210.355H143.838Z" fill="#C2ECFD"/>
<path d="M189.133 240.995C192.379 240.995 213.839 242.432 213.839 225.764C213.839 209.097 192.158 210.534 189.133 210.534" fill="#C2ECFD"/>
<path d="M43.6132 209.857C36.8907 209.857 35.7563 222.556 35.5935 232.755C35.5872 233.157 35.2471 233.479 34.8278 233.479C34.4085 233.479 34.069 233.157 34.0621 232.755C33.9006 222.556 32.7662 209.857 26.0437 209.857C17.2589 209.857 18.0164 231.542 18.0164 240.996H26.9088H34.0716H35.5859H39.0061H51.6405C51.6405 231.542 52.398 209.857 43.6132 209.857Z" fill="#C2ECFD"/>
<path d="M166.48 241.026H155.563L165.669 210.422H177.356L187.733 241.026H176.277L172.835 228.557C172.46 227.198 170.616 227.178 170.213 228.527L166.48 241.026L166.48 241.026Z" fill="#C2ECFD"/>
<path d="M64.5578 240.995H53.6602L63.749 210.442H75.4169L85.7749 240.995H74.3383L70.9023 228.547C70.5279 227.19 68.6861 227.17 68.2839 228.518L64.5578 240.995Z" fill="#C2ECFD"/>
<path d="M223.668 232.773C223.668 227.724 229.645 227.589 238 227.585V223.922C229.8 223.918 223.668 223.78 223.668 218.735C223.668 213.686 229.645 213.551 238 213.547V210.242H217.006V241.286H238V237.96C229.8 237.957 223.668 237.818 223.668 232.773Z" fill="#C2ECFD"/>
</g>
<defs>
<clipPath id="clip0_19_9">
<rect width="220" height="31.4286" fill="white" transform="translate(18 15)"/>
</clipPath>
<clipPath id="clip1_19_9">
<rect width="220" height="31.4286" fill="white" transform="translate(18 53.762)"/>
</clipPath>
<clipPath id="clip2_19_9">
<rect width="220" height="31.4286" fill="white" transform="translate(18 92.5237)"/>
</clipPath>
<clipPath id="clip3_19_9">
<rect width="220" height="31.4286" fill="white" transform="translate(18 132.333)"/>
</clipPath>
<clipPath id="clip4_19_9">
<rect width="220" height="31.4286" fill="white" transform="translate(18 171.095)"/>
</clipPath>
<clipPath id="clip5_19_9">
<rect width="220" height="31.4286" fill="white" transform="translate(18 209.857)"/>
</clipPath>
</defs>
</svg>
