<svg xmlns="http://www.w3.org/2000/svg" viewBox="0 0 694.8 2182.8" preserveAspectRatio="none">
  <path fill="#ffb100" d="M694.8,1091.4c0,191.9-155.5,347.4-347.4,347.4C155.5,1438.8,0,1283.2,0,1091.4S155.5,744,347.4,744C539.2,744,694.8,899.5,694.8,1091.4"/>
  <path fill="#ffb100" d="M694.8,347.4c0,191.9-155.5,347.4-347.4,347.4C155.5,694.8,0,539.2,0,347.4S155.5,0,347.4,0C539.2,0,694.8,155.5,694.8,347.4"/>
  <path fill="#ffb100" d="M694.8,1835.4c0,191.9-155.5,347.4-347.4,347.4C155.5,2182.8,0,2027.3,0,1835.4S155.5,1488,347.4,1488C539.2,1488,694.8,1643.6,694.8,1835.4"/>
</svg>
